<svg xmlns="http://www.w3.org/2000/svg" xmlns:xlink="http://www.w3.org/1999/xlink" viewBox="0 0 1040.8107 568.75822"><defs><linearGradient id="linear-gradient" x1="331.53947" y1="421.31144" x2="331.53947" y2="332.55893" gradientUnits="userSpaceOnUse"><stop offset="0.0012" stop-color="#d7ebff" stop-opacity="0"/><stop offset="0.21281" stop-color="#d7ebff" stop-opacity="0"/><stop offset="0.63772" stop-color="#0098ff"/></linearGradient><linearGradient id="linear-gradient-2" x1="-1258.96869" y1="206.74341" x2="-1133.53684" y2="206.74341" gradientTransform="translate(1452.474)" gradientUnits="userSpaceOnUse"><stop offset="0.0012" stop-color="#283a52"/><stop offset="1" stop-color="#354f6e"/></linearGradient><linearGradient id="linear-gradient-3" x1="-1201.61264" y1="327.91535" x2="-1185.15938" y2="327.91535" xlink:href="#linear-gradient-2"/><linearGradient id="linear-gradient-4" x1="185.69358" y1="311.28891" x2="187.45181" y2="311.28891" gradientTransform="matrix(1, 0, 0, 1, 0, 0)" xlink:href="#linear-gradient-2"/><linearGradient id="linear-gradient-5" x1="185.69358" y1="318.00401" x2="187.45181" y2="318.00401" gradientTransform="matrix(1, 0, 0, 1, 0, 0)" xlink:href="#linear-gradient-2"/></defs><title>Cover_SMS</title><g id="Layer_2" data-name="Layer 2"><g id="Layer_1-2" data-name="Layer 1"><rect width="1040.8107" height="568.75822" fill="none"/><path d="M844.72035,553.7175l166.45982-96.60976a18.78892,18.78892,0,0,0-.03044-32.51829L844.377,328.215a28.25249,28.25249,0,0,0-28.305.01914L649.86895,424.57952a18.78892,18.78892,0,0,0-.00855,32.5055l166.49636,96.63239A28.25249,28.25249,0,0,0,844.72035,553.7175Z" fill="#e0ebfe"/><path d="M844.72035,547.15053l166.45982-96.60976a18.78892,18.78892,0,0,0-.03044-32.51829L844.377,321.648a28.25249,28.25249,0,0,0-28.305.01914L649.86895,418.01255a18.78892,18.78892,0,0,0-.00855,32.5055l166.49636,96.63239A28.25249,28.25249,0,0,0,844.72035,547.15053Z" fill="#ebf4ff"/><path d="M715.6646,324.79946l120.20406-69.76389a13.56787,13.56787,0,0,0-.022-23.48213l-120.43-69.594a20.40171,20.40171,0,0,0-20.43959.01382l-120.01865,69.573a13.56787,13.56787,0,0,0-.00617,23.47289l120.23045,69.78023A20.40171,20.40171,0,0,0,715.6646,324.79946Z" fill="#e0ebfe"/><path d="M715.6646,320.74055l120.20406-69.76389a13.56787,13.56787,0,0,0-.022-23.48213l-120.43-69.594a20.40171,20.40171,0,0,0-20.43959.01382l-120.01865,69.573a13.56787,13.56787,0,0,0-.00617,23.47289l120.23045,69.78023A20.40171,20.40171,0,0,0,715.6646,320.74055Z" fill="#ebf4ff"/><path d="M392.95471,520.38352,626.36452,384.9174a26.34581,26.34581,0,0,0-.04268-45.59712L392.47323,204.18414a39.61562,39.61562,0,0,0-39.68919.02684L119.73425,339.30636a26.34581,26.34581,0,0,0-.012,45.57918l233.461,135.49784A39.61562,39.61562,0,0,0,392.95471,520.38352Z" fill="#e0ebfe"/><path d="M392.95471,517.03284,626.36452,381.56673a26.34581,26.34581,0,0,0-.04268-45.59712L392.47323,200.83346a39.61562,39.61562,0,0,0-39.68919.02684L119.73425,335.95569a26.34581,26.34581,0,0,0-.012,45.57918l233.461,135.49784A39.61562,39.61562,0,0,0,392.95471,517.03284Z" fill="#ebf4ff"/><line x1="256.85776" y1="333.42297" x2="406.22118" y2="420.4474" fill="none" stroke-miterlimit="10" stroke-width="2" stroke="url(#linear-gradient)"/><ellipse cx="367.32917" cy="393.99035" rx="51.81906" ry="23.20506" fill="#dce9ff"/><path d="M292.43677,315.62982l-98.06149,56.91371a8.76312,8.76312,0,0,1-13.16194-7.5791V110.30607a28.5292,28.5292,0,0,1,14.20842-24.67449l98.06149-56.91371a8.76312,8.76312,0,0,1,13.16194,7.5791V290.95533A28.5292,28.5292,0,0,1,292.43677,315.62982Z" fill="#c0d4ef"/><circle cx="301.75017" cy="43.7822" r="17.18698" fill="#c0d4ef"/><circle cx="198.40003" cy="363.42089" r="17.18673" fill="#c0d4ef"/><path d="M186.45739,368.35911a8.87933,8.87933,0,0,1-.30406-2.29935V113.18725A28.529,28.529,0,0,1,200.3618,88.51276l97.22449-56.57867a8.86893,8.86893,0,0,1,1.7519-.76129,19.26345,19.26345,0,0,1,7.89832-1.69633c2.53658,0,4.16531,1.10733,6.38516,1.99436-3.31721-2.66619-6.73811-4.87562-11.3252-4.87562a19.26345,19.26345,0,0,0-7.89832,1.69633,8.86893,8.86893,0,0,0-1.7519.76129L195.42176,85.6315A28.529,28.529,0,0,0,181.2133,110.306V363.1785a13.38963,13.38963,0,0,0,0,2.787c1.16348,6.72271,4.85085,11.594,12.21113,13.91071A18.57179,18.57179,0,0,1,186.45739,368.35911Z" fill="#b0c4e2"/><path d="M307.86375,35.63393a8.93318,8.93318,0,0,1,.14983,1.55476v.44809l5.8814,5.8814c0-.6104.01759-1.21325.04379-1.80923Z" fill="#b0c5e2"/><path d="M193.59535,140.8579a17.34848,17.34848,0,0,1-7.442-1.12744c-3.28912-1.23179-3.45439-1.16006-4.94-2.37879v-4.83213c1.39,1.25758,1.41919,1.328,5.20212,2.61924a16.76079,16.76079,0,0,0,7.17989.887Z" fill="#83a3dc"/><path d="M193.59535,355.09165a18.03961,18.03961,0,0,1-7.612-1.12419c-3.28912-1.23179-3.37058-1.00312-4.85618-2.22185v-4.83213c1.39,1.25758,1.65851,1.36209,5.44144,2.65329a15.36269,15.36269,0,0,0,7.02674.69275Z" fill="#83a3dc"/><path d="M303.5494,321.34847l-98.06149,56.91371a8.76312,8.76312,0,0,1-13.16194-7.5791V116.02473a28.5292,28.5292,0,0,1,14.20842-24.67449l98.06149-56.91371a8.76312,8.76312,0,0,1,13.16194,7.5791V296.674A28.5292,28.5292,0,0,1,303.5494,321.34847Z" fill="#283a52"/><path d="M304.72874,321.74253l-98.06149,56.91371a8.76312,8.76312,0,0,1-13.16194-7.5791V116.41878a28.5292,28.5292,0,0,1,14.20842-24.67449l98.06149-56.91371a8.76312,8.76312,0,0,1,13.16194,7.5791V297.068A28.5292,28.5292,0,0,1,304.72874,321.74253Z" fill="url(#linear-gradient-2)"/><path d="M311.57855,276.2119,200.34218,340.77216a.41761.41761,0,0,1-.62724-.36118V127.71a2.307,2.307,0,0,1,1.149-1.99531L312.10028,61.15443a.41761.41761,0,0,1,.62724.36118v212.701A2.307,2.307,0,0,1,311.57855,276.2119Z" fill="#fff"/><path d="M268.54819,321.53987a8.06664,8.06664,0,0,0-1.87607-5.69258c-1.8111-.88846-4.22579-.68578-6.8871.85069-5.60965,3.23879-10.15722,11.11527-10.15722,17.59274a8.06622,8.06622,0,0,0,1.87632,5.69277c1.811.88837,4.22561.68568,6.88692-.85078C264.00059,335.89382,268.54819,328.01734,268.54819,321.53987Z" fill="#aac5ef"/><path d="M268.17549,74.9617,244.28333,88.82843a1.76357,1.76357,0,0,1-2.64883-1.52529h0a5.28577,5.28577,0,0,1,2.63248-4.57158l23.89216-13.86672a1.76357,1.76357,0,0,1,2.64883,1.52529h0A5.28577,5.28577,0,0,1,268.17549,74.9617Z" fill="#283a52"/><path d="M267.31462,322.3712a7.01479,7.01479,0,0,0-1.63144-4.9503c-1.57494-.77261-3.67477-.59635-5.98906.73976-4.87818,2.81646-8.83277,9.66589-8.83277,15.29873a7.01443,7.01443,0,0,0,1.63166,4.95046c1.57485.77253,3.67461.59627,5.98889-.73984C263.36,334.85347,267.31462,328.004,267.31462,322.3712Z" fill="url(#linear-gradient-3)"/><path d="M303.30611,38.743a8.46737,8.46737,0,0,1,.142,1.47369v.42472l5.57472,5.57472c0-.57857.01667-1.15.04151-1.71489Z" fill="#b0c5e2"/><path d="M308.692,270.19363,203.256,331.38743a.39583.39583,0,0,1-.59453-.34235V129.43524a2.18673,2.18673,0,0,1,1.08906-1.89127l105.436-61.19381a.39583.39583,0,0,1,.59453.34235V268.30236A2.18673,2.18673,0,0,1,308.692,270.19363Z" fill="#fff"/><path d="M304.35725,144.19883l-96.72571,56.13844a.36313.36313,0,0,1-.54541-.31407V161.81253a2.00608,2.00608,0,0,1,.99909-1.735l96.72571-56.13844a.36313.36313,0,0,1,.54541.31407v38.21068A2.00608,2.00608,0,0,1,304.35725,144.19883Z" fill="#fdd8f0"/><path d="M304.35725,195.60253,207.63154,251.741a.36313.36313,0,0,1-.54541-.31407V213.21623a2.00608,2.00608,0,0,1,.99909-1.735l96.72571-56.13844a.36313.36313,0,0,1,.54541.31407V193.8675A2.00608,2.00608,0,0,1,304.35725,195.60253Z" fill="#ccf3ff"/><path d="M304.35725,247.00622l-96.72571,56.13844a.36313.36313,0,0,1-.54541-.31407V264.61992a2.00608,2.00608,0,0,1,.99909-1.735l96.72571-56.13844a.36313.36313,0,0,1,.54541.31407V245.2712A2.00608,2.00608,0,0,1,304.35725,247.00622Z" fill="#b7cef5"/><path d="M185.31535,322.287h0c1.66344,1.427,3.838-.18726,3.838-2.8491V312.1905a7.03249,7.03249,0,0,0-2.1587-5.30623h0c-1.66344-1.427-3.838.18726-3.838,2.8491v7.24741A7.03249,7.03249,0,0,0,185.31535,322.287Z" fill="#b0c4e2"/><path d="M185.79187,313.0525h0c.71941.61715,1.65986-.081,1.65986-1.23218h0a3.04141,3.04141,0,0,0-.93359-2.29484h0c-.71941-.61715-1.65986.081-1.65986,1.23218h0A3.04142,3.04142,0,0,0,185.79187,313.0525Z" fill="#8aa9d6"/><path d="M186.51819,309.52552v-.00017c-.05851-.05017-.12218-.04151-.183-.07468a1.49181,1.49181,0,0,0-.64158,1.307,3.04133,3.04133,0,0,0,.93362,2.2948c.05851.05017.12218.04151.183.07468a1.49188,1.49188,0,0,0,.64158-1.30684A3.04107,3.04107,0,0,0,186.51819,309.52552Z" fill="url(#linear-gradient-4)"/><path d="M185.79187,319.76759h0c.71941.61715,1.65986-.081,1.65986-1.23218h0a3.04141,3.04141,0,0,0-.93359-2.29484h0c-.71941-.61715-1.65986.081-1.65986,1.23218h0A3.04142,3.04142,0,0,0,185.79187,319.76759Z" fill="#8aa9d6"/><path d="M186.51819,316.24061v-.00017c-.05851-.05017-.12218-.04151-.183-.07468a1.49181,1.49181,0,0,0-.64158,1.307,3.04133,3.04133,0,0,0,.93362,2.2948c.05851.05017.12218.04151.183.07468a1.49188,1.49188,0,0,0,.64158-1.30684A3.04107,3.04107,0,0,0,186.51819,316.24061Z" fill="url(#linear-gradient-5)"/><path d="M186.25812,190.55862h0c1.82451,1.56518,4.20963-.20539,4.20963-3.125V174.23345a7.71344,7.71344,0,0,0-2.36772-5.82h0c-1.82451-1.56518-4.20963.20539-4.20963,3.125v13.20019A7.71346,7.71346,0,0,0,186.25812,190.55862Z" fill="#8aa9d6"/><path d="M184.83583,191.1125h0c1.82451,1.56518,4.20963-.20539,4.20963-3.125V174.78733a7.71344,7.71344,0,0,0-2.36772-5.82h0c-1.82451-1.56518-4.20963.20539-4.20963,3.125v13.20019A7.71346,7.71346,0,0,0,184.83583,191.1125Z" fill="#a6bbe0"/><path d="M339.62486,165.49354,229.01715,229.68893a.41525.41525,0,0,1-.62369-.35914V142.88524a2.294,2.294,0,0,1,1.14248-1.984L340.14365,76.70581a.41525.41525,0,0,1,.62369.35914V163.5095A2.294,2.294,0,0,1,339.62486,165.49354Z" fill="#0098ff"/><text transform="matrix(0.99998, -0.58281, 0, 1, 237.53417, 154.67879)" font-size="8.0156" fill="#fff" font-family="NunitoSans-SemiBold, Nunito Sans" font-weight="700"><tspan letter-spacing="-0.07695em">Y</tspan><tspan x="4.28027" y="0">our insu</tspan><tspan x="33.3925" y="0" letter-spacing="-0.00305em">r</tspan><tspan x="36.30169" y="0" letter-spacing="0.00011em">ance policy has </tspan><tspan x="0" y="10.6875" letter-spacing="-0.00495em">e</tspan><tspan x="4.20011" y="10.6875">xpi</tspan><tspan x="15.08514" y="10.6875" letter-spacing="-0.01em">r</tspan><tspan x="17.93865" y="10.6875" letter-spacing="0.00011em">ed, Ren</tspan><tspan x="45.32713" y="10.6875" letter-spacing="-0.00695em">e</tspan><tspan x="49.51121" y="10.6875">w in</tspan><tspan x="64.98109" y="10.6875" letter-spacing="-0.00495em">s</tspan><tspan x="68.80489" y="10.6875" letter-spacing="-0.00011em">tantly</tspan><tspan x="0" y="21.375">at </tspan><tspan x="9.23383" y="21.375" letter-spacing="-0.00695em">y</tspan><tspan x="13.3462" y="21.375">our insu</tspan><tspan x="42.45758" y="21.375" letter-spacing="-0.00295em">r</tspan><tspan x="45.36762" y="21.375">ance </tspan><tspan x="0" y="32.0625">compan</tspan><tspan x="28.94348" y="32.0625" letter-spacing="-0.03695em">y</tspan><tspan x="32.81538" y="32.0625">.</tspan><tspan x="0" y="53.4375" letter-spacing="-0.00989em">C</tspan><tspan x="5.34675" y="53.4375">all to </tspan><tspan x="25.09605" y="53.4375" letter-spacing="-0.01em">r</tspan><tspan x="27.94956" y="53.4375" letter-spacing="0.00011em">en</tspan><tspan x="36.80709" y="53.4375" letter-spacing="-0.00695em">e</tspan><tspan x="40.99117" y="53.4375">w : *********</tspan></text><path d="M235.36348,223.066l3.11964,8.08648a1.90867,1.90867,0,0,0,3.59579-.09653l4.76723-14.65434Z" fill="#0098ff"/><path d="M591.20132,351.74453l.06836-.01221" fill="none" stroke="#96a5b8" stroke-linecap="round" stroke-linejoin="round"/><path d="M595.24185,350.98647c46.332-9.10547,78.69287-29.83081,78.69287-53.94067,0-22.26611-27.60107-41.64539-68.31689-51.65125" fill="none" stroke="#96a5b8" stroke-linecap="round" stroke-linejoin="round" stroke-dasharray="0.20207 4.04137"/><path d="M603.61978,244.9136l-.09717-.02295" fill="none" stroke="#96a5b8" stroke-linecap="round" stroke-linejoin="round"/><path d="M587.61037,353.64364h0a8.552,8.552,0,0,0-.23537-14.7225l-176.2232-100.393a17.30458,17.30458,0,0,0-17.58535.26774h0a8.552,8.552,0,0,0,.21939,14.72653L569.75477,353.92325A17.53828,17.53828,0,0,0,587.61037,353.64364Z" fill="#e0ebfe"/><path d="M386.34055,219.59977,591.72428,337.99194a.43761.43761,0,0,0,.65728-.37848V262.37439a2.41752,2.41752,0,0,0-1.204-2.09088L385.79382,141.89134a.43761.43761,0,0,0-.65728.37848v75.23907A2.41752,2.41752,0,0,0,386.34055,219.59977Z" fill="#ebf7ff"/><path d="M386.34055,87.78758,591.72428,206.17975a.43761.43761,0,0,0,.65728-.37848V132.3652a2.41752,2.41752,0,0,0-1.204-2.09088L385.79382,11.88215a.43761.43761,0,0,0-.65728.37848V85.6967A2.41752,2.41752,0,0,0,386.34055,87.78758Z" fill="#ebf7ff"/><path d="M370.93807,147.36294,605.22384,282.28708a3.5391,3.5391,0,0,0,5.31562-3.06092V213.11553a7.95018,7.95018,0,0,0-3.95943-6.876L372.29426,71.31539a3.5391,3.5391,0,0,0-5.31562,3.06092v66.11063A7.95018,7.95018,0,0,0,370.93807,147.36294Z" fill="#fa9ed8"/><text transform="matrix(0.99999, 0.57487, 0, 1, 382.39832, 101.30624)" font-size="11.23915" fill="#d45951" font-family="NunitoSans-Bold, Nunito Sans" font-weight="700"><tspan letter-spacing="-0.07797em">T</tspan><tspan x="6.01283" y="0" letter-spacing="-0.00196em">r</tspan><tspan x="10.29514" y="0">ansa</tspan><tspan x="34.45908" y="0" letter-spacing="0.00294em">c</tspan><tspan x="39.97663" y="0" letter-spacing="0.00008em">tional SMS</tspan></text><path d="M386.77059,124.12,492.755,185.632a2.89438,2.89438,0,0,0,4.34726-2.5033h0a9.675,9.675,0,0,0-4.81844-8.36776l-104.981-60.9297a3.22842,3.22842,0,0,0-4.849,2.79221h0A8.6676,8.6676,0,0,0,386.77059,124.12Z" fill="#fc82d0"/><path d="M386.77059,142.91186l70.01869,40.57964a2.89438,2.89438,0,0,0,4.34726-2.5033h0a9.675,9.675,0,0,0-4.81844-8.36777l-69.01526-39.99726a3.22842,3.22842,0,0,0-4.849,2.79221h0A8.6676,8.6676,0,0,0,386.77059,142.91186Z" fill="#fc82d0"/><text transform="matrix(0.99999, 0.57487, 0, 1, 395.17909, 38.94268)" font-size="11.23915" fill="#7997cd" font-family="NunitoSans-Bold, Nunito Sans" font-weight="700"><tspan letter-spacing="-0.00994em">Pr</tspan><tspan x="11.49737" y="0">om</tspan><tspan x="27.77147" y="0" letter-spacing="-0.00294em">o</tspan><tspan x="34.20086" y="0">tional SMS</tspan></text><path d="M399.55216,61.75656l105.98441,61.51208a2.89438,2.89438,0,0,0,4.34726-2.5033h0a9.675,9.675,0,0,0-4.81844-8.36776l-104.981-60.9297a3.22842,3.22842,0,0,0-4.849,2.79221h0A8.6676,8.6676,0,0,0,399.55216,61.75656Z" fill="#c0d4ef"/><path d="M399.55216,80.54848l70.01869,40.57964a2.89438,2.89438,0,0,0,4.34726-2.5033h0a9.675,9.675,0,0,0-4.81844-8.36777L400.08441,70.25979a3.22842,3.22842,0,0,0-4.849,2.79221h0A8.6676,8.6676,0,0,0,399.55216,80.54848Z" fill="#c0d4ef"/><path d="M536.83058,222.15841l45.629,26.34927a1.17976,1.17976,0,0,0,1.76973-1.02165V223.162a6.27722,6.27722,0,0,0-3.13813-5.436l-45.629-26.34927a1.17976,1.17976,0,0,0-1.76973,1.02165v24.324A6.27722,6.27722,0,0,0,536.83058,222.15841Z" fill="#ff6c62"/><text transform="matrix(0.99999, 0.57487, 0, 1, 542.16728, 213.66724)" font-size="11.23915" fill="#fff" font-family="NunitoSans-Bold, Nunito Sans" font-weight="700">SEND</text><path d="M539.39132,148.79208l34.98088,20.20033a.90445.90445,0,0,0,1.35674-.78323v-18.6477a4.81235,4.81235,0,0,0-2.40581-4.16741l-34.98088-20.20033a.90445.90445,0,0,0-1.35674.78323v18.6477A4.81235,4.81235,0,0,0,539.39132,148.79208Z" fill="#c0d4ef"/><text transform="matrix(0.99999, 0.57487, 0, 1, 543.46516, 142.27299)" font-size="8.61636" fill="#fff" font-family="NunitoSans-Bold, Nunito Sans" font-weight="700">SEND</text><path d="M404.82929,209.74834l62.67474,35.949a.90445.90445,0,0,0,1.35674-.78323v-18.6477A4.81235,4.81235,0,0,0,466.455,222.099L403.78022,186.15a.90445.90445,0,0,0-1.35674.78323v18.6477A4.81235,4.81235,0,0,0,404.82929,209.74834Z" fill="#c0d4ef"/><text transform="matrix(0.99999, 0.57487, 0, 1, 408.9047, 203.22947)" font-size="8.61636" fill="#fff" font-family="NunitoSans-Bold, Nunito Sans" font-weight="700">G<tspan x="6.31593" y="0" letter-spacing="-0.00501em">R</tspan><tspan x="12.26104" y="0">OUP SMS</tspan></text><path d="M518.4874,275.47307l47.245,27.06657a.90445.90445,0,0,0,1.35674-.78323v-18.6477a4.81235,4.81235,0,0,0-2.40581-4.16741l-47.245-27.06657a.90445.90445,0,0,0-1.35674.78323v18.6477A4.81235,4.81235,0,0,0,518.4874,275.47307Z" fill="#11b7a9"/><text transform="matrix(0.99999, 0.57487, 0, 1, 522.39924, 270.13874)" font-size="8.61636" fill="#fff" font-family="NunitoSans-Bold, Nunito Sans" font-weight="700">ADD SMS</text><path d="M301.374,140.69247" fill="#c0d4ef"/><path d="M195.79214,123.51614l-.06836-.01233" fill="none" stroke="#96a5b8" stroke-linecap="round" stroke-linejoin="round"/><path d="M191.7919,122.76577c-46.35352-9.1012-78.73315-29.83142-78.73315-53.94836,0-22.646,28.55054-42.30579,70.41211-52.15515A221.7493,221.7493,0,0,1,296.7604,19.87087a239.31069,239.31069,0,0,1,77.26025,38.59619,231.68829,231.68829,0,0,1,25.39648,22.32861" fill="none" stroke="#96a5b8" stroke-linecap="round" stroke-linejoin="round" stroke-dasharray="0.20002 4.00034"/><path d="M400.83413,82.24978c.02344.02393.04639.04773.06934.07166" fill="none" stroke="#96a5b8" stroke-linecap="round" stroke-linejoin="round"/><polygon points="195.904 117.554 195.904 122.865 244.538 121.295 195.904 117.554" fill="#0098ff"/><polygon points="244.538 121.295 196.742 136.468 192.55 121.295 244.538 121.295" fill="#0098ff"/><polygon points="244.538 121.295 184.91 129.666 192.55 121.295 244.538 121.295" fill="#61bffc"/><polygon points="244.538 121.295 195.904 117.554 200.656 112.709 244.538 121.295" fill="#61bffc"/><polygon points="587.335 343.981 587.335 352.486 509.453 349.972 587.335 343.981" fill="#0098ff"/><polygon points="509.453 349.972 585.993 374.269 592.707 349.972 509.453 349.972" fill="#0098ff"/><polygon points="509.453 349.972 604.941 363.377 592.707 349.972 509.453 349.972" fill="#61bffc"/><polygon points="509.453 349.972 587.335 343.981 579.726 336.223 509.453 349.972" fill="#61bffc"/><path d="M423.10272,181.39872c-6.04785,17.86217.81809,45.76227,15.33552,62.31662s31.18888,15.49414,37.23673-2.368-.81809-45.76227-15.33552-62.31662S429.15057,163.53655,423.10272,181.39872Z" fill="#0098ff" opacity="0.11"/><path d="M433.01505,192.72608c-3.79384,11.205.51319,28.70687,9.62,39.09148s19.56492,9.71954,23.35876-1.48547-.51319-28.70687-9.62-39.09148S436.80889,181.52106,433.01505,192.72608Z" fill="#0098ff" opacity="0.11"/><path d="M440.744,201.53947c-2.01558,5.953.27265,15.25131,5.11091,20.76842s10.3944,5.16377,12.41-.7892-.27265-15.25131-5.11091-20.76842S442.75959,195.58649,440.744,201.53947Z" fill="#0098ff" opacity="0.27"/><path d="M357.18328,181.12018l1.64094.50541s.44385,3.43983.33289,3.36585S357.18328,181.12018,357.18328,181.12018Z" fill="#ebf4ff"/><path d="M359.10813,185.76528l-.67383-2.21094-.4834-13.25684,19.40918,5.36426c-.26855.98047-1.94434,7.24023-1.85156,10.10938a41.596,41.596,0,0,0,.46289,5.06348Z" fill="#fec6c3"/><path d="M358.08274,170.46353l19.12354,5.2854c-.34961,1.292-1.91309,7.239-1.82324,10.02649a42.53485,42.53485,0,0,0,.43408,4.88232l-16.60889-4.99243-.64453-2.1167-.481-13.08508m-.26221-.33191.49463,13.45862.69287,2.276,17.11963,5.146a39.61617,39.61617,0,0,1-.49463-5.24487c-.09912-3.06787,1.88037-10.193,1.88037-10.193l-19.69287-5.44275Z" fill="#fdb3ae"/><path d="M363.29594,171.888c2.639,3.82611-.74686,6.1607-.74686,6.1607a86.03628,86.03628,0,0,0,13.369,4.63613c.52692-3.25917,1.59544-7.11026,1.59544-7.11026l-14.39639-3.97886C363.17771,171.69119,363.23315,171.79694,363.29594,171.888Z" fill="#fd8e87"/><path d="M362.54908,176.095s15.98008,7.13446,19.87926,4.65832c3.04021-1.93067,3.59787-13.92581,2.80619-19.07172s-.50134-14.10007-.50134-14.10007-15.89536.31709-20.2496,5.33106-3.82645,13.19466-1.18752,17.02111S362.54908,176.095,362.54908,176.095Z" fill="#fec6c3"/><path d="M337.23161,263.25l5.922,10.93539s7.144-9.33738,7.0187-9.33738-8.52271-2.914-8.52271-2.914Z" fill="#fec6c3" stroke="#fdb3ae" stroke-miterlimit="10" stroke-width="0.25"/><path d="M425.155,219.11489c7.76172-4.06055,22.2959-11.64453,22.69434-11.78516a1.86383,1.86383,0,0,1,.55273-.08008,1.484,1.484,0,0,1,1.14258.4668,2.18152,2.18152,0,0,1,.2666,1.80273,1.271,1.271,0,0,1-.88184.89355,67.56809,67.56809,0,0,0-6.78711,3.499l-.2373.13574.25879.09082a2.34951,2.34951,0,0,1,1.16406,1.18945c.46875.9541,1.91406,5.47559,1.82031,6.5498-.05859.67578-2.85547,1.48145-4.89648,2.07031-1.0459.30078-2.03418.58594-2.72168.85156a39.07135,39.07135,0,0,0-4.84668,2.42773Z" fill="#fec6c3"/><path d="M448.4011,207.37515h0a1.36141,1.36141,0,0,1,1.04736.42224,2.0743,2.0743,0,0,1,.24316,1.68469,1.13124,1.13124,0,0,1-.79687.811,67.04032,67.04032,0,0,0-6.81445,3.51038l-.46875.27051.51074.1825a2.19312,2.19312,0,0,1,1.09326,1.12646c.52539,1.06958,1.896,5.47974,1.80859,6.48364-.05176.59058-3.02881,1.44849-4.80713,1.96118-1.04834.30225-2.03857.58765-2.73145.855a38.64,38.64,0,0,0-4.7793,2.38647L425.35764,219.15c7.752-4.05444,22.04834-11.515,22.5293-11.7019a1.75672,1.75672,0,0,1,.51416-.073m0-.25a1.99107,1.99107,0,0,0-.59082.08508c-.43408.13977-22.8584,11.87-22.8584,11.87l7.708,8.3064a39.3077,39.3077,0,0,1,4.91553-2.4707c2.20752-.85156,7.60107-1.925,7.69775-3.02759.09619-1.10278-1.34277-5.61719-1.8335-6.6156a2.43674,2.43674,0,0,0-1.23486-1.25232,68.72722,68.72722,0,0,1,6.75977-3.4873c1.37939-.40161,1.17871-2.297.67529-2.89648a1.584,1.584,0,0,0-1.23877-.51147Z" fill="#fdb3ae"/><path d="M354.34064,379.0383s13.1246-3.75321,15.93947-2.34577.65677,6.84965-5.44209,10.3213-9.39642,5.62975-12.62685,6.47432-8.29719.93821-9.04786-2.252-.37533-7.03719.46923-8.44463S354.34064,379.0383,354.34064,379.0383Z" fill="#fff"/><path d="M383.36108,391.57338s14.72032-4.20961,17.87753-2.63095.7366,7.68238-6.10384,11.57619-10.53885,6.31417-14.16206,7.26135-9.306,1.0524-10.148-2.52572-.42091-7.89284.52626-9.47138S383.36108,391.57338,383.36108,391.57338Z" fill="#fff"/><path d="M378.65793,399.4977a14.79078,14.79078,0,0,1-7.06543-1.90918c.06641-2.292,1.5957-55.03516,1.5957-57.96,0-2.56543-5.707-44.28125-6.78223-46.42969a1.84977,1.84977,0,0,0-1.67383-1.208,2.4121,2.4121,0,0,0-1.2666.41016l-.05371.03809.001.06641c.00781.3623.80469,36.28809.002,41.16016-.4502,2.72754-1.96484,15.6543-3.30078,27.05957-1.09766,9.36816-2.0459,17.458-2.21387,18.2959-.41895,2.09863-2.22461,4.50781-6.03418,4.97656a16.642,16.642,0,0,1-2.02344.12207,17.26211,17.26211,0,0,1-5.16406-.77539c.09961-2.36426,2.002-47.3418,2.002-49.6582,0-2.06055-.9834-30.16016-2.00977-34.00879-1.02832-3.85254-2.78125-18.67773-2.69043-24.124a112.49175,112.49175,0,0,1,1.10938-12.36816L390.24,267.86392c.1543,2.87988,3.22168,60.55957,2.251,70.75-.99023,10.40527-6.71,54.44824-6.76758,54.89258-.00879.04785-.98145,5.36133-5.625,5.90723A12.347,12.347,0,0,1,378.65793,399.4977Z" fill="#7e8de8"/><path d="M343.196,263.32168l46.9248,4.65527c.21143,3.96045,3.20508,60.54956,2.24561,70.625-.99072,10.40332-6.70947,54.44434-6.76562,54.87769-.00879.05273-.96094,5.27417-5.51709,5.81006a12.24192,12.24192,0,0,1-1.42529.08276,14.70477,14.70477,0,0,1-6.93945-1.854c.0918-3.16406,1.59424-54.98926,1.59424-57.89014,0-2.56763-5.71777-44.33154-6.79443-46.48535a1.96809,1.96809,0,0,0-1.78613-1.2771,2.54906,2.54906,0,0,0-1.34033.43359l-.10742.0769.00293.13208c.0083.3623.80469,36.27637.00342,41.13672-.45068,2.73218-1.96631,15.66895-3.30371,27.08276-1.05078,8.967-2.043,17.43652-2.20947,18.269-.14209.71-1.09521,4.282-5.92725,4.877a16.52466,16.52466,0,0,1-2.00732.12109,17.347,17.347,0,0,1-5.03613-.74c.13818-3.26855,1.99756-47.27539,1.99756-49.56909,0-2.06177-.98535-30.18433-2.01367-34.04077-1.02637-3.8501-2.77686-18.65479-2.686-24.0896a111.58865,111.58865,0,0,1,1.09082-12.23389m-.21289-.27246a112.79623,112.79623,0,0,0-1.12793,12.5022c-.09424,5.64014,1.69189,20.39819,2.69434,24.1582,1.00293,3.76,2.00537,31.584,2.00537,33.97632s-2.00537,49.74658-2.00537,49.74658a16.94754,16.94754,0,0,0,5.29395.8125,16.69536,16.69536,0,0,0,2.03809-.123c4.07373-.50146,5.76563-3.196,6.1416-5.07593.376-1.88013,4.69971-40.42041,5.51465-45.36011.81445-4.9397,0-41.18311,0-41.18311a2.30174,2.30174,0,0,1,1.19482-.387,1.72761,1.72761,0,0,1,1.5625,1.13892c1.00244,2.00537,6.76807,43.36572,6.76807,46.37354,0,3.00806-1.59814,58.02979-1.59814,58.02979a14.74236,14.74236,0,0,0,7.19336,1.96436,12.44065,12.44065,0,0,0,1.45459-.08447c4.79443-.564,5.73438-6.01587,5.73438-6.01587s5.76514-44.36841,6.76807-54.89648c1.00244-10.52808-2.25635-70.87622-2.25635-70.87622l-47.376-4.7002Z" fill="#6172da"/><g opacity="0.23"><path d="M356.34491,293.25482a1.78249,1.78249,0,0,0-2.75729-.752s.81488,36.24338,0,41.18314c-.81459,4.93977-5.13865,43.48-5.51459,45.36a6.27287,6.27287,0,0,1-3.52131,4.33764l-.002.04905a17.34093,17.34093,0,0,0,7.33188.68932c4.07352-.50128,5.76541-3.196,6.14164-5.076.32046-1.60288,3.50918-29.83972,4.94793-41.19571C362.07969,329.2538,357.25428,295.07334,356.34491,293.25482Z" fill="#6172da"/><path d="M390.35943,267.74934l-47.37651-4.7s-.05461.365-.13726.97345l37.56358,3.72655s3.25865,60.34831,2.25594,70.87635-6.76811,54.89629-6.76811,54.89629a8.60869,8.60869,0,0,1-2.90784,4.90076,14.24013,14.24013,0,0,0,7.12412,1.11526c4.79391-.564,5.73391-6.016,5.73391-6.016s5.76541-44.36825,6.76811-54.89629C393.61779,328.09765,390.35943,267.74934,390.35943,267.74934Z" fill="#6172da"/></g><path d="M343.60968,183.81585c4.10443-1.21494,7.951-.27063,12.1782.40236,9.58775,1.52639,31.24961,5.121,35.32338,7.06087,5.264,2.50668,8.52271,7.0187,10.27739,17.04542S405.65,227.8766,405.65,227.8766l22.05878-10.79194a9.35167,9.35167,0,0,1,5.264,4.52524,6.60577,6.60577,0,0,1,0,6.2667s-26.06947,17.04542-29.32815,17.29609-9.52538-6.016-12.28273-17.04542l-2.75735-11.02939s1.8847,1.77112,1.8847,10.04316-.694,12.97219.058,18.98822,2.256,14.85208,1.692,18.9881-2.56019,9.12734-6.58,9.96405c-13.8494,2.88268-24.62813-.752-32.14817-3.572s-11.09206-6.768-10.52805-8.46,3.384-11.234,2.632-18.378c-.32991-3.13415-2.9355-14.78941-2.68976-19.48943l.24574-4.7s-3.196,13.16007-2.632,17.67209,5.828,23.95535,5.828,23.95535-2.9535,2.632-5.89477,2.444-3.88128-1.316-3.88128-1.316-6.204-19.06733-7.52-21.69934,6.58-49.82026,8.836-53.58028A11.74183,11.74183,0,0,1,343.60968,183.81585Z" fill="#fee8b0"/><path d="M390.206,246.58064c.04479-5.401.28318-11.468.28318-16.33268,0-.34654-.0078-.6652-.01416-.98927C390.41289,234.72185,390.154,241.22751,390.206,246.58064Z" fill="#2b3650"/><path d="M432.97295,221.60989a9.35212,9.35212,0,0,0-5.26406-4.52525L405.65,227.87658s-2.50676-9.52541-4.26135-19.5521-5.01324-14.53872-10.27729-17.04541c-4.07381-1.93989-25.73571-5.53453-35.32353-7.06091-4.08942-.651-7.82457-1.53765-11.7799-.49593.97757.15886,1.967.33476,2.97922.49593,9.58782,1.52638,31.24972,5.121,35.32353,7.06091,2.961,1.41,1.79764,9.403.21326,16.12693a47.6881,47.6881,0,0,0-1.01918,15.63533c.11356,1.14675.18378,2.502.18378,4.09968,0,8.272-.6938,12.97217.05808,18.98818s2.25594,14.8521,1.69188,18.98811c-.56377,4.136-2.55993,9.12736-6.58,9.96405a50.14484,50.14484,0,0,1-5.77841.848,49.14463,49.14463,0,0,0,14.5791-.848c4.02007-.8367,6.01623-5.828,6.58029-9.96405.56377-4.136-.94029-12.972-1.69217-18.98811s-.05808-10.71616-.05808-18.98818c0-1.04778-.03063-1.98944-.08351-2.8382.27567,1.10153.59006,2.35968.95618,3.82444,2.75758,11.02939,9.02406,17.29608,12.283,17.04541,3.25836-.25068,29.32811-17.29608,29.32811-17.29608A6.606,6.606,0,0,0,432.97295,221.60989Z" fill="#ffd666"/><path d="M356.51908,185.833v-4.17021c0-.42609.66569-.789.81889-.39137a4.63208,4.63208,0,0,0,3.12913,2.97325c4.01069,1.19067,6.70537-.66745,9.71338-1.01523s4.136-.27889,5.13869,0a8.59863,8.59863,0,0,1,4.136,2.28423,10.31924,10.31924,0,0,1,1.5202,2.57.50325.50325,0,0,1-.58608.69109c-1.81021-.47014-5.62771-1.44372-6.19815-1.44372a28.79117,28.79117,0,0,0-6.674,1.61368,11.95378,11.95378,0,0,1-7.144.235,4.82961,4.82961,0,0,1-3.84155-3.23489A.48174.48174,0,0,1,356.51908,185.833Z" fill="#ffd666"/><path d="M383.10385,280.32678s4.01288,41.61088,3.38511,51.88827-5.15063,61.7753-5.15063,61.7753" fill="none" stroke="#6172da" stroke-miterlimit="10" stroke-width="0.25"/><path d="M360.85707,293.17351s-1.504,1.128-2.444,6.204,1.128,31.96017,0,37.03619-4.512,39.963-4.512,39.963" fill="none" stroke="#6172da" stroke-miterlimit="10" stroke-width="0.25"/><path d="M371.12632,171.783s.26064,4.99155-.3992,6.44268c-2.03753,4.48045-10.43626,3.83786-14.55612.81222-4.20432-3.08806-1.07513-6.41186-5.21336-21.50849-.65139-2.37645-1.92187-6.64539.10575-10.59121a10.63188,10.63188,0,0,1,2.08564-2.7407c5.0092-4.95632,12.4301-5.66426,15.91729-5.95361,0,0,9.42465-.78138,15.20935,2.79358.90108.55666,3.03,1.9226,3.07338,3.71228a18.448,18.448,0,0,1,.00052,2.70643c-.8617,2.69468-1.49057,3.08121-5.71288,3.74142-4.22231.65947-5.63951,2.22954-6.16254,5.079a13.803,13.803,0,0,0,.08164,4.57306.519.519,0,0,1-.84565.47871,4.05828,4.05828,0,0,0-2.31892-1.09274c-2.0401.083-3.44731.97589-2.98011,3.467a6.54193,6.54193,0,0,0,2.726,3.713,10.13708,10.13708,0,0,1-.57653,1.95432A8.12358,8.12358,0,0,0,371.12632,171.783Z" fill="#171425"/><path d="M343.05892,264.10175l1.88751-12.9583c-.093.76482-.19072,1.52082-.2907,2.2584-1.59046-8.15695-3.76549-12.43715-4.11658-15.24791-.56406-4.512,2.63188-17.6721,2.63188-17.6721s-5.87348,4.78886-7.05708,11.59453,4.14259,15.27557,4.29054,20.60176.06762,11.87519.06762,11.87519a6.22526,6.22526,0,0,0,2.58681-.45158Z" fill="#ffd666"/><path d="M343.05083,228.41976l.12021-7.93791-.24562,4.70007A23.37322,23.37322,0,0,0,343.05083,228.41976Z" fill="#e8efff"/><path d="M392.31716,262.16931c-.01936.27589-.0445.5395-.07773.7841-.56406,4.136-2.56022,9.12736-6.58029,9.96405-13.84946,2.8827-24.62811-.752-32.14811-3.572-6.23873-2.33952-9.75051-5.45138-10.44749-7.41142l-.00116.00043-.46523,3.26363c.1572-.04949.31439-.09919.46639-.15712.697,1.96,4.20876,5.0719,10.44749,7.41142,7.52,2.82007,18.29864,6.45473,32.14811,3.572,4.02007-.8367,6.01623-5.828,6.58029-9.96405A22.21214,22.21214,0,0,0,392.31716,262.16931Z" fill="#2b3650"/></g></g></svg>